<?xml version="1.0" encoding="UTF-8" standalone="no"?>
<svg width="610px" height="610px" viewBox="0 0 610 610" version="1.1" xmlns="http://www.w3.org/2000/svg" xmlns:xlink="http://www.w3.org/1999/xlink" xmlns:sketch="http://www.bohemiancoding.com/sketch/ns">
    <!-- Generator: Sketch 3.0.4 (8053) - http://www.bohemiancoding.com/sketch -->
    <title>burst 2</title>
    <desc>Created with Sketch.</desc>
    <defs></defs>
    <g id="Page-1" stroke="none" stroke-width="1" fill="none" fill-rule="evenodd" sketch:type="MSPage">
        <g id="Red-Burst" sketch:type="MSLayerGroup" transform="translate(-124.000000, -124.000000)" fill="#DC121C">
            <path d="M429,429 L411,126 L447,126 L429,429 L732,447 L732,411 L429,429 Z M429,429 L447,732 L411,732 L429,429 L126,447 L126,411 L429,429 Z" id="Rectangle-1" sketch:type="MSShapeGroup"></path>
            <path d="M429,429 L411,126 L447,126 L429,429 L732,447 L732,411 L429,429 Z M429,429 L447,732 L411,732 L429,429 L126,447 L126,411 L429,429 Z" id="Rectangle-6" sketch:type="MSShapeGroup" transform="translate(429.000000, 429.000000) rotate(-285.000000) translate(-429.000000, -429.000000) "></path>
            <path d="M429,429 L411,126 L447,126 L429,429 L732,447 L732,411 L429,429 Z M429,429 L447,732 L411,732 L429,429 L126,447 L126,411 L429,429 Z" id="Rectangle-5" sketch:type="MSShapeGroup" transform="translate(429.000000, 429.000000) rotate(-300.000000) translate(-429.000000, -429.000000) "></path>
            <path d="M429,429 L411,126 L447,126 L429,429 L732,447 L732,411 L429,429 Z M429,429 L447,732 L411,732 L429,429 L126,447 L126,411 L429,429 Z" id="Rectangle-4" sketch:type="MSShapeGroup" transform="translate(429.000000, 429.000000) rotate(-330.000000) translate(-429.000000, -429.000000) "></path>
            <path d="M429,429 L411,126 L447,126 L429,429 L732,447 L732,411 L429,429 Z M429,429 L447,732 L411,732 L429,429 L126,447 L126,411 L429,429 Z" id="Rectangle-3" sketch:type="MSShapeGroup" transform="translate(429.000000, 429.000000) rotate(-345.000000) translate(-429.000000, -429.000000) "></path>
            <path d="M429,429 L411,126 L447,126 L429,429 L732,447 L732,411 L429,429 Z M429,429 L447,732 L411,732 L429,429 L126,447 L126,411 L429,429 Z" id="Rectangle-2" sketch:type="MSShapeGroup" transform="translate(429.000000, 429.000000) rotate(-315.000000) translate(-429.000000, -429.000000) "></path>
        </g>
    </g>
</svg>